<svg width="36" height="36" viewBox="0 0 36 36" fill="none" xmlns="http://www.w3.org/2000/svg">
<path d="M18 3.375C15.1075 3.375 12.2799 4.23274 9.87479 5.83976C7.46972 7.44677 5.5952 9.73089 4.48827 12.4033C3.38134 15.0756 3.09171 18.0162 3.65602 20.8532C4.22033 23.6902 5.61323 26.2961 7.65857 28.3414C9.70391 30.3868 12.3098 31.7797 15.1468 32.344C17.9838 32.9083 20.9244 32.6187 23.5968 31.5117C26.2691 30.4048 28.5532 28.5303 30.1602 26.1252C31.7673 23.7201 32.625 20.8926 32.625 18C32.6206 14.1226 31.0784 10.4052 28.3366 7.66341C25.5948 4.92165 21.8774 3.37939 18 3.375ZM18 30.375C15.5525 30.375 13.1599 29.6492 11.1248 28.2894C9.08977 26.9297 7.50363 24.9969 6.567 22.7357C5.63036 20.4745 5.3853 17.9863 5.86279 15.5858C6.34028 13.1852 7.51889 10.9802 9.24956 9.24955C10.9802 7.51888 13.1852 6.34027 15.5858 5.86278C17.9863 5.38529 20.4745 5.63036 22.7357 6.56699C24.997 7.50363 26.9297 9.08976 28.2894 11.1248C29.6492 13.1599 30.375 15.5525 30.375 18C30.3713 21.2809 29.0663 24.4264 26.7463 26.7463C24.4264 29.0663 21.2809 30.3713 18 30.375ZM21.0026 13.7737L16.3067 18L21.0026 22.2263C21.1132 22.325 21.2031 22.4445 21.2674 22.578C21.3316 22.7115 21.3688 22.8563 21.3769 23.0043C21.385 23.1522 21.3638 23.3002 21.3145 23.4399C21.2653 23.5797 21.1889 23.7083 21.0898 23.8184C20.9907 23.9285 20.8708 24.0179 20.737 24.0816C20.6032 24.1452 20.4582 24.1818 20.3103 24.1893C20.1623 24.1968 20.0143 24.1749 19.8748 24.1251C19.7353 24.0752 19.6071 23.9982 19.4974 23.8987L13.8724 18.8362C13.7552 18.7307 13.6615 18.6017 13.5973 18.4577C13.5332 18.3136 13.5 18.1577 13.5 18C13.5 17.8423 13.5332 17.6864 13.5973 17.5423C13.6615 17.3983 13.7552 17.2693 13.8724 17.1638L19.4974 12.1013C19.7194 11.9032 20.0108 11.8012 20.3079 11.8174C20.605 11.8337 20.8835 11.967 21.0826 12.1881C21.2816 12.4092 21.385 12.7002 21.37 12.9974C21.355 13.2945 21.2229 13.5737 21.0026 13.7737Z" fill="#EBEBF5" fill-opacity="0.6"/>
</svg>
