<svg width="36" height="36" viewBox="0 0 36 36" fill="none" xmlns="http://www.w3.org/2000/svg">
<path d="M18 32.625C20.8925 32.625 23.7201 31.7673 26.1252 30.1602C28.5303 28.5532 30.4048 26.2691 31.5117 23.5967C32.6187 20.9244 32.9083 17.9838 32.344 15.1468C31.7797 12.3098 30.3868 9.7039 28.3414 7.65856C26.2961 5.61322 23.6902 4.22032 20.8532 3.65601C18.0162 3.09171 15.0756 3.38133 12.4033 4.48826C9.73088 5.59519 7.44677 7.46971 5.83975 9.87478C4.23274 12.2799 3.375 15.1074 3.375 18C3.37939 21.8774 4.92164 25.5948 7.66341 28.3366C10.4052 31.0784 14.1226 32.6206 18 32.625ZM18 5.625C20.4475 5.625 22.8401 6.35078 24.8752 7.71056C26.9102 9.07035 28.4964 11.0031 29.433 13.2643C30.3696 15.5255 30.6147 18.0137 30.1372 20.4142C29.6597 22.8148 28.4811 25.0198 26.7504 26.7504C25.0198 28.4811 22.8148 29.6597 20.4142 30.1372C18.0137 30.6147 15.5255 30.3696 13.2643 29.433C11.0031 28.4964 9.07034 26.9102 7.71056 24.8752C6.35078 22.8401 5.625 20.4475 5.625 18C5.62872 14.7191 6.9337 11.5736 9.25366 9.25366C11.5736 6.93371 14.7191 5.62872 18 5.625ZM14.9974 22.2263L19.6933 18L14.9974 13.7737C14.8868 13.675 14.7969 13.5555 14.7326 13.422C14.6684 13.2885 14.6312 13.1437 14.6231 12.9957C14.615 12.8478 14.6362 12.6998 14.6855 12.56C14.7347 12.4203 14.8111 12.2917 14.9102 12.1816C15.0093 12.0715 15.1292 11.9821 15.263 11.9184C15.3968 11.8548 15.5418 11.8182 15.6898 11.8107C15.8377 11.8032 15.9857 11.8251 16.1252 11.8749C16.2647 11.9248 16.3929 12.0018 16.5026 12.1013L22.1276 17.1638C22.2448 17.2693 22.3385 17.3983 22.4027 17.5423C22.4668 17.6864 22.5 17.8423 22.5 18C22.5 18.1577 22.4668 18.3136 22.4027 18.4577C22.3385 18.6017 22.2448 18.7307 22.1276 18.8362L16.5026 23.8987C16.2806 24.0968 15.9892 24.1988 15.6921 24.1826C15.395 24.1663 15.1165 24.033 14.9174 23.8119C14.7184 23.5908 14.615 23.2998 14.63 23.0026C14.645 22.7055 14.7771 22.4263 14.9974 22.2263Z" fill="white"/>
</svg>
